# xmcd
#
# Track frame offsets:
#	150
#	14588
#	28985
#	46526
#	63758
#	80903
#	95774
#	112722
#	128169
#	143912
#	159923
#	174649
#	189402
#	206855
#	224580
#	241786
#	260898
#	276603
#
# Disc length: 3885 seconds
#
# Revision: 0
# Processed by: cddbd v1.5.2PL0 Copyright (c) Steve Scherf et al.
# Submitted via: audiograbber 1.83.01
#
DISCID=0e0f2b12
DTITLE=Various Artist - Promo Only Country Radio 2011 - 10
DYEAR=2011
DGENRE=Country
TTITLE0=Bomshel - Halleluy'all
TTITLE1=Eric Church - Drink in My Hand
TTITLE2=Reba McEntire - Somebody's Chelsea
TTITLE3=Keith Bryant - Can't Tell Somebody (Who to Love)
TTITLE4=Steel Magnolia - Bulletproof
TTITLE5=Miranda Lambert - Baggage Claim
TTITLE6=Bill Gentry - This Letter (PO Clean Edit)
TTITLE7=Casey James - Let's Don't Call it A Night
TTITLE8=Justin Moore - Bait A Hook
TTITLE9=Sonia Leigh - My Name is Money
TTITLE10=Lady Antebellum - We Owned the Night
TTITLE11=Randy Travis - Everything and All
TTITLE12=The Band Perry - All Your Life
TTITLE13=Hali Hicks - Last Night of Spring
TTITLE14=Jeff Bates - He Wasn't Like Us
TTITLE15=Risa Binder - You Made it Rain
TTITLE16=Levi Hart - Set it Free
TTITLE17=Johnny Patton - Lonesome for Someone
EXTD=
EXTT0=
EXTT1=
EXTT2=
EXTT3=
EXTT4=
EXTT5=
EXTT6=
EXTT7=
EXTT8=
EXTT9=
EXTT10=
EXTT11=
EXTT12=
EXTT13=
EXTT14=
EXTT15=
EXTT16=
EXTT17=
PLAYORDER=
